<?xml version="1.0" encoding="UTF-8" standalone="no"?>
<!-- Created with Inkscape (http://www.inkscape.org/) -->

<svg
   xmlns:dc="http://purl.org/dc/elements/1.1/"
   xmlns:cc="http://creativecommons.org/ns#"
   xmlns:rdf="http://www.w3.org/1999/02/22-rdf-syntax-ns#"
   xmlns:svg="http://www.w3.org/2000/svg"
   xmlns="http://www.w3.org/2000/svg"
   xmlns:sodipodi="http://sodipodi.sourceforge.net/DTD/sodipodi-0.dtd"
   xmlns:inkscape="http://www.inkscape.org/namespaces/inkscape"
   width="255.97412"
   height="256"
   id="svg8302"
   sodipodi:version="0.32"
   inkscape:version="0.91 r13725"
   version="1.0"
   sodipodi:docname="camera.svg"
   inkscape:output_extension="org.inkscape.output.svg.inkscape">
  <defs
     id="defs8304">
    <inkscape:perspective
       sodipodi:type="inkscape:persp3d"
       inkscape:vp_x="0 : 526.18109 : 1"
       inkscape:vp_y="0 : 1000 : 0"
       inkscape:vp_z="744.09448 : 526.18109 : 1"
       inkscape:persp3d-origin="372.04724 : 350.78739 : 1"
       id="perspective8310" />
  </defs>
  <sodipodi:namedview
     id="base"
     pagecolor="#ffffff"
     bordercolor="#666666"
     borderopacity="1.0"
     gridtolerance="10000"
     guidetolerance="10"
     objecttolerance="10"
     inkscape:pageopacity="0.0"
     inkscape:pageshadow="2"
     inkscape:zoom="0.7"
     inkscape:cx="-201.81332"
     inkscape:cy="-54.520222"
     inkscape:document-units="px"
     inkscape:current-layer="layer1"
     showgrid="false"
     inkscape:window-width="1536"
     inkscape:window-height="801"
     inkscape:window-x="-8"
     inkscape:window-y="-8"
     inkscape:window-maximized="1"
     fit-margin-top="0"
     fit-margin-left="0"
     fit-margin-right="0"
     fit-margin-bottom="0" />
  <metadata
     id="metadata8307">
    <rdf:RDF>
      <cc:Work
         rdf:about="">
        <dc:format>image/svg+xml</dc:format>
        <dc:type
           rdf:resource="http://purl.org/dc/dcmitype/StillImage" />
        <dc:title></dc:title>
      </cc:Work>
    </rdf:RDF>
  </metadata>
  <g
     inkscape:label="Layer 1"
     inkscape:groupmode="layer"
     id="layer1"
     transform="translate(-3.209e-6,4.108e-6)">
    <g
       id="g3090"
       transform="matrix(25.879499,0,0,-25.879499,225.38456,256)"
       style="fill:#ffffff;fill-opacity:1">
      <path
         d="m 0,0 c 0.652,0 1.182,0.529 1.182,1.182 l 0,7.528 C 1.182,9.362 0.652,9.892 0,9.892 l -7.527,0 c -0.653,0 -1.182,-0.53 -1.182,-1.182 l 0,-7.528 C -8.709,0.529 -8.18,0 -7.527,0 L 0,0 Z"
         style="fill:#ffffff;fill-opacity:1;fill-rule:nonzero;stroke:none"
         id="path3092"
         inkscape:connector-curvature="0" />
    </g>
    <path
       inkscape:connector-curvature="0"
       id="path3096"
       style="fill:#e4e4e4;fill-opacity:1;fill-rule:nonzero;stroke:none"
       d="M 30.579008,5.1912171 C 16.578199,5.1912171 5.16534,16.578197 5.16534,30.579006 l 0,194.846744 c 0,14.00081 11.412859,25.36191 25.413668,25.36191 l 194.794992,0 c 14.00081,0 25.38779,-11.3611 25.38779,-25.36191 l 0,-194.846744 c 0,-14.000809 -11.38698,-25.3877889 -25.38779,-25.3877889 l -194.794992,0 z" />
    <g
       id="g3098"
       transform="matrix(25.879499,0,0,-25.879499,146.02497,91.01819)"
       style="fill:#ffffff;fill-opacity:1">
      <path
         d="m 0,0 c 0.629,0 1.174,-0.342 1.475,-0.846 l 1.773,-0.002 0,0.952 c 0,0.353 -0.287,0.64 -0.641,0.64 l -6.611,0 c -0.353,0 -0.639,-0.287 -0.639,-0.64 l 0.002,-0.944 3.166,-0.002 C -1.172,-0.34 -0.629,0 0,0"
         style="fill:#ffffff;fill-opacity:1;fill-rule:nonzero;stroke:none"
         id="path3100"
         inkscape:connector-curvature="0" />
    </g>
    <g
       id="g3102"
       transform="matrix(25.879499,0,0,-25.879499,68.792883,63.950723)"
       style="fill:#ffffff;fill-opacity:1">
      <path
         d="m 0,0 -0.588,0 -0.068,-0.212 0.705,0 L 0,0 Z"
         style="fill:#ffffff;fill-opacity:1;fill-rule:nonzero;stroke:none"
         id="path3104"
         inkscape:connector-curvature="0" />
    </g>
    <g
       id="g3106"
       transform="matrix(25.879499,0,0,-25.879499,206.02441,61.020954)"
       style="fill:#ffffff;fill-opacity:1">
      <path
         d="m 0,0 -0.783,0 -0.139,-0.327 1.049,0 L 0,0 Z"
         style="fill:#ffffff;fill-opacity:1;fill-rule:nonzero;stroke:none"
         id="path3108"
         inkscape:connector-curvature="0" />
    </g>
    <path
       d="m 136.4626,66.553998 -17.44279,0 0,-8.436726 17.44279,0 0,8.436726 z m 15.99353,-11.826932 -49.24869,0 -10.144763,14.854824 68.684193,0 -9.29074,-14.854824 z"
       style="fill:#ffffff;fill-opacity:1;fill-rule:nonzero;stroke:none"
       id="path3110"
       inkscape:connector-curvature="0" />
    <g
       id="g3112"
       transform="matrix(25.879499,0,0,-25.879499,186.56531,117.3039)"
       style="fill:#ffffff;fill-opacity:1">
      <path
         d="m 0,0 c 0.098,-0.216 0.156,-0.454 0.156,-0.707 0,-0.951 -0.771,-1.723 -1.722,-1.723 -0.952,0 -1.723,0.772 -1.723,1.723 0,0.253 0.057,0.491 0.156,0.708 l -3.076,0 0,-2.596 c 0,-0.352 0.285,-0.639 0.639,-0.639 l 6.611,0 c 0.354,0 0.641,0.287 0.641,0.639 L 1.684,0 0,0 Z"
         style="fill:#ffffff;fill-opacity:1;fill-rule:nonzero;stroke:none"
         id="path3114"
         inkscape:connector-curvature="0" />
    </g>
    <g
       id="g3116"
       transform="matrix(25.879499,0,0,-25.879499,170.33886,120.94235)"
       style="fill:#ffffff;fill-opacity:1">
      <path
         d="m 0,0 c -0.027,0.048 -0.061,0.093 -0.098,0.136 -0.201,0.242 -0.502,0.4 -0.841,0.4 -0.34,0 -0.641,-0.157 -0.842,-0.398 C -1.818,0.094 -1.852,0.049 -1.881,0 c -0.101,-0.166 -0.162,-0.358 -0.162,-0.566 0,-0.609 0.494,-1.102 1.104,-1.102 0.607,0 1.101,0.493 1.101,1.102 0,0.208 -0.06,0.4 -0.162,0.566"
         style="fill:#ffffff;fill-opacity:1;fill-rule:nonzero;stroke:none"
         id="path3118"
         inkscape:connector-curvature="0" />
    </g>
  </g>
</svg>
